<svg xmlns="http://www.w3.org/2000/svg" version="1.1" xmlns:xlink="http://www.w3.org/1999/xlink" xmlns:svgjs="http://svgjs.com/svgjs" width="512" height="512" x="0" y="0" viewBox="0 0 512.021 512.021" style="enable-background:new 0 0 512 512" xml:space="preserve" class=""><g><path d="M304.947 385.93v8.714h-97.382v-8.714H0v3.584c0 5.642 2.048 11.274 6.154 15.38 4.096 4.096 9.738 6.154 15.38 6.154h468.951c5.642 0 11.274-2.048 15.38-6.154 4.096-4.096 6.154-9.738 6.154-15.38v-3.584H304.947zM68.68 400.276H47.155v-2.56H68.68v2.56zM60.989 377.728H451.01c3.584 0 7.178-1.536 9.738-4.096s4.096-6.154 4.096-9.738V114.806c0-3.584-1.536-7.178-4.096-9.738s-6.154-4.096-9.738-4.096H60.989c-3.584 0-7.178 1.536-9.738 4.096s-4.096 6.154-4.096 9.738v249.078c0 3.584 1.536 7.178 4.096 9.738 3.072 3.082 6.154 4.106 9.738 4.106zm195.267-270.602c2.56 0 4.608 2.048 4.608 4.608s-2.048 4.608-4.608 4.608-4.608-2.048-4.608-4.608 2.048-4.608 4.608-4.608zm-187.064 15.37h374.139v233.707H69.192V122.496z" fill="#000000" data-original="#000000" class=""></path></g></svg>